<svg width="125" height="106" viewBox="0 0 125 106" fill="none" xmlns="http://www.w3.org/2000/svg">
<path d="M24.787 103.913H22.2514V99.1039H19.1476V103.913H16.6121V99.1039H14.4263L12.9399 96.6996H16.6121V84.7214C16.6121 83.2788 17.0055 82.1422 17.7487 81.3116C18.4919 80.481 19.4973 80.0438 20.8088 80.0438C22.1203 80.0438 23.1695 80.5247 23.9126 81.4427C24.5247 82.1859 24.8307 83.2788 24.8307 84.7214V103.913H24.787ZM22.2077 96.6996V84.7214C22.2077 83.3225 21.6831 82.5793 20.6339 82.5793C19.5848 82.5793 19.0602 83.2788 19.0602 84.7214V96.6996H22.2077Z" fill="#D71920"/>
<path d="M36.6778 80.6558L31.9127 105.53H31.869L27.104 80.6558H29.6832L31.869 93.2459H31.9127L34.0985 80.6558H36.6778Z" fill="#D71920"/>
<path d="M46.907 103.913H43.1474C40.8305 103.913 39.6502 102.645 39.6502 100.066V99.1039H37.4644L35.978 96.6995H39.6502V80.6558H46.907V83.1476H42.1857V96.6558H46.907V99.0601H42.1857V100.022C42.1857 100.765 42.3168 101.202 42.5354 101.29C42.6665 101.333 42.8851 101.377 43.1474 101.377H46.907V103.913Z" fill="#D71920"/>
<path d="M56.3497 103.913H53.5519C52.0218 103.913 50.9726 103.519 50.3169 102.732C49.7486 102.033 49.4863 100.984 49.4863 99.541V80.6558H52.0218V99.541C52.0218 100.415 52.1093 100.94 52.2404 101.115C52.4153 101.29 52.8087 101.377 53.5082 101.377H56.306V103.913H56.3497Z" fill="#D71920"/>
<path d="M60.0658 80.6558H57.5303V103.913H60.0658V80.6558Z" fill="#D71920"/>
<path d="M79.213 100.678C79.213 101.683 78.8633 102.47 78.1202 103.038C77.4207 103.607 76.4589 103.913 75.2349 103.913H70.8196V99.1038H68.6338L67.1475 96.6995H70.8196V79.6503C73.3551 80.3935 75.366 81.7049 76.8961 83.5847C78.4261 85.5082 79.1693 87.6503 79.1693 90.0984C79.1693 92.5028 78.295 94.6885 76.5027 96.6995C78.295 97.1366 79.1693 98.1421 79.1693 99.628V100.678H79.213ZM76.6775 90.317C76.6775 87.5629 75.5846 85.3333 73.3988 83.6721V96.6558C75.5846 95.1257 76.6775 93.0273 76.6775 90.317ZM76.6775 100.415V100.066C76.6775 99.4099 76.2841 99.1038 75.4972 99.1038H73.3988V101.421H75.4972C76.2841 101.421 76.6775 101.071 76.6775 100.415Z" fill="#D71920"/>
<path d="M84.5028 80.6558H81.9673V103.913H84.5028V80.6558Z" fill="#D71920"/>
<path d="M92.8962 80.6558C90.7104 82.7541 89.5738 85.2459 89.5738 88.1749C89.5738 89.5301 89.9673 91.0601 90.7541 92.7651C91.8033 94.9509 92.3279 96.7869 92.3279 98.2295C92.3279 100.24 91.847 102.164 90.8416 103.913H87.6066C89.0492 102.164 89.7924 100.284 89.7924 98.3607C89.7924 97.2678 89.3115 95.6503 88.3498 93.5519C87.4755 91.6722 87.082 89.8798 87.082 88.2186C87.082 85.3334 87.8689 82.8416 89.4864 80.6995H92.8962V80.6558Z" fill="#D71920"/>
<path d="M102.82 83.1476H99.9778V103.913H97.4426V83.1476H94.6885V80.6558H102.82V83.1476Z" fill="#D71920"/>
<path d="M113.661 103.913H111.126V100.24C111.126 99.672 110.995 99.3661 110.776 99.235C110.645 99.1476 110.383 99.1038 110.033 99.1038H107.847V103.913H105.311V99.1038H103.126L101.639 96.6995H105.311V79.6503C107.847 80.3497 109.858 81.6175 111.388 83.4973C112.918 85.3771 113.661 87.5629 113.661 90.0547C113.661 92.5902 112.787 94.8197 111.038 96.6995C112.175 96.8306 112.918 97.2678 113.355 97.9672C113.574 98.3607 113.705 99.1038 113.705 100.284V103.913H113.661ZM111.126 90.317C111.126 87.5191 110.033 85.3333 107.847 83.6721V96.6558C110.033 95.1257 111.126 92.9836 111.126 90.317Z" fill="#D71920"/>
<path d="M124.94 100.459C124.94 101.683 124.547 102.645 123.804 103.388C123.017 104.131 122.011 104.525 120.787 104.525C119.519 104.525 118.514 104.131 117.727 103.388C116.94 102.645 116.591 101.639 116.591 100.459V84.1094C116.591 82.9291 116.984 81.9673 117.771 81.1804C118.558 80.3936 119.563 80.0438 120.787 80.0438C122.011 80.0438 123.017 80.4373 123.76 81.1804C124.547 81.9673 124.94 82.9291 124.94 84.1094V100.459ZM122.361 99.7601V84.6777C122.361 84.0657 122.274 83.6285 122.142 83.3662C121.88 82.8416 121.399 82.5793 120.7 82.5793C119.607 82.5793 119.039 83.2788 119.039 84.6777V99.7601C119.039 100.415 119.126 100.852 119.257 101.115C119.519 101.639 120 101.902 120.7 101.902C121.836 101.902 122.361 101.202 122.361 99.7601Z" fill="#D71920"/>
<path fill-rule="evenodd" clip-rule="evenodd" d="M100.109 36.8524C100.109 57.1803 83.6284 73.7049 63.2568 73.7049C42.9289 73.7049 26.4043 57.224 26.4043 36.8524C26.4043 16.4808 42.8852 0 63.2568 0C83.6284 0 100.109 16.5246 100.109 36.8524Z" fill="black"/>
<path fill-rule="evenodd" clip-rule="evenodd" d="M63.3007 0C42.9728 0 26.4482 16.5246 26.4482 36.8524C26.4482 57.1803 42.9728 73.7049 63.3007 73.7049C83.6286 73.7049 100.153 57.1803 100.153 36.8524C100.11 16.5683 83.6286 0 63.3007 0ZM99.6728 36.9399L98.3608 38.1202L97.0493 36.765L98.4045 35.5847L99.6728 36.9399ZM98.3608 35.0601L96.8745 33.7923L98.186 32.4808L99.5408 33.7486L98.3608 35.0601ZM98.0548 32L96.481 30.9071L97.6614 29.5082L99.1477 30.6011L98.0548 32ZM96.5248 36.8524C96.5248 55.1694 81.6177 70.0765 63.257 70.0765C44.8963 70.0765 29.9892 55.1694 29.9892 36.8524C29.9892 18.5355 44.8963 3.62842 63.257 3.62842C81.6177 3.62842 96.5248 18.5355 96.5248 36.8524ZM97.4865 29.0273L95.8253 28.0218L96.8745 26.5355L98.4483 27.4972L97.4865 29.0273ZM96.6996 26.0546L94.951 25.224L95.869 23.6502L97.5302 24.4808L96.6996 26.0546ZM95.6067 23.1694L93.8144 22.4699L94.6012 20.8087L96.3062 21.5082L95.6067 23.1694ZM94.2953 20.4153L92.4155 19.8907L93.0275 18.1858L94.7761 18.7104L94.2953 20.4153ZM93.1149 16L92.7652 17.7486L90.8417 17.3989L91.3226 15.694L93.1149 16ZM89.3553 13.2896L91.1477 13.4644L90.9291 15.2131L89.0494 15.0382L89.3553 13.2896ZM87.2133 11.1038L89.0056 11.1475L88.9619 12.8961L87.0384 12.8524L87.2133 11.1038ZM84.8963 9.13662L86.7324 9.04919L86.8198 10.7978L84.8963 10.9289V9.13662ZM84.1969 7.08198L84.4592 8.83061L82.5794 9.13662L82.4045 7.34427L84.1969 7.08198ZM81.4865 5.37706L81.9236 7.08198L80.0439 7.56285L79.7379 5.7705L81.4865 5.37706ZM78.6887 3.89072L79.257 5.59563L77.3772 6.20766L76.9401 4.45903L78.6887 3.89072ZM75.7597 2.66667L76.4592 4.28416L74.6668 5.07105L74.0548 3.36613L75.7597 2.66667ZM72.7433 1.70493L73.6176 3.27869L71.9127 4.19673L71.1259 2.57924L72.7433 1.70493ZM69.6395 1.00547L70.645 2.49181L69.0275 3.58471L68.1094 2.01094L69.6395 1.00547ZM66.492 0.612027L67.6286 2.01094L66.0985 3.23498L65.093 1.74864L66.492 0.612027ZM63.257 0.480877L64.5685 1.79236L63.257 3.10383L61.9455 1.79236L63.257 0.480877ZM60.0657 0.612027L61.4646 1.79236L60.2843 3.19126L58.8854 2.01094L60.0657 0.612027ZM56.9182 1.04919L58.4045 2.09837L57.3554 3.58471L55.869 2.53552L56.9182 1.04919ZM53.8144 1.70493L55.3881 2.62295L54.4701 4.19673L52.8963 3.27869L53.8144 1.70493ZM50.798 2.71039L52.4592 3.49727L51.6723 5.15848L50.0111 4.37159L50.798 2.71039ZM47.8253 3.89072L49.5739 4.54646L48.9619 6.25137L47.2133 5.59563L47.8253 3.89072ZM45.0275 5.37706L46.8198 5.85793L46.339 7.65028L44.5466 7.16941L45.0275 5.37706ZM42.3608 7.08198L44.1969 7.38799L43.8471 9.18033L42.0548 8.87432L42.3608 7.08198ZM39.869 9.00547L41.7051 9.18033L41.5302 11.0164L39.6941 10.8415L39.869 9.00547ZM37.5083 11.1912H39.3444V13.0273H37.5083V11.1912ZM37.2023 13.377L37.3772 15.1694L35.5411 15.3005L35.41 13.4644L37.2023 13.377ZM35.2788 15.7377L35.5848 17.5737L33.7488 17.8798L33.4428 16.0874L35.2788 15.7377ZM33.4865 18.2295L33.9674 20.0218L32.175 20.5027L31.6941 18.7541L33.4865 18.2295ZM32.0002 20.8961L32.6122 22.6011L30.8635 23.2131L30.2515 21.5082L32.0002 20.8961ZM30.7324 23.694L31.5193 25.3552L29.8581 26.142L29.1149 24.4808L30.7324 23.694ZM29.6832 26.5355L30.6012 28.153L28.9838 29.071L28.1094 27.4535L29.6832 26.5355ZM28.8963 29.5519L29.9455 31.0819L28.4155 32.1311L27.41 30.6011L28.8963 29.5519ZM28.4155 32.5683L29.5958 33.9672L28.1531 35.1475L27.0165 33.7049L28.4155 32.5683ZM28.1969 35.6284L29.5083 36.9399L28.1969 38.2076L26.9291 36.8524L28.1969 35.6284ZM28.1969 38.6885L29.5958 39.8688L28.3717 41.224L27.0165 40L28.1969 38.6885ZM28.5029 41.7486L30.0329 42.7978L28.94 44.2841L27.4974 43.1912L28.5029 41.7486ZM29.0275 44.765L30.6449 45.683L29.6832 47.2131L28.1094 46.2513L29.0275 44.765ZM29.8581 47.694L31.563 48.4808L30.7324 50.0983L29.1149 49.2677L29.8581 47.694ZM30.9073 50.5792L32.6559 51.235L31.9564 52.9399L30.2515 52.2404L30.9073 50.5792ZM32.2187 53.3333L34.0548 53.8142L33.4865 55.5628L31.7378 55.0382L32.2187 53.3333ZM33.4428 57.7049L33.7925 55.9563L35.6286 56.306L35.2351 58.0983L33.4428 57.7049ZM37.2023 60.459L35.41 60.2404L35.5848 58.4918L37.4646 58.6667L37.2023 60.459ZM39.3444 62.6448L37.5083 62.5574L37.552 60.8087H39.4319L39.3444 62.6448ZM39.869 64.6994L39.7378 62.9508L41.6176 62.7759L41.6614 64.612L39.869 64.6994ZM42.3608 66.6229L42.0985 64.918L43.9783 64.612L44.1969 66.4043L42.3608 66.6229ZM45.0275 68.3279L44.634 66.6229L46.4701 66.1421L46.8635 67.9344L45.0275 68.3279ZM47.8253 69.8142L47.257 68.153L49.0493 67.4972L49.5739 69.2459L47.8253 69.8142ZM50.7542 71.0382L50.0548 69.4645L51.8034 68.6776L52.5029 70.3825L50.7542 71.0382ZM53.7706 72L52.94 70.4699L54.6012 69.5082L55.4318 71.1694L53.7706 72ZM56.9182 72.6994L55.9564 71.2131L57.5302 70.1202L58.5357 71.694L56.9182 72.6994ZM60.022 73.0929L58.9291 71.7377L60.4155 70.5137L61.5084 72L60.022 73.0929ZM63.2133 73.224L61.9892 71.9563L63.3444 70.6011L64.5685 72L63.2133 73.224ZM66.3608 73.0929L65.0493 71.9563L66.2734 70.5137L67.6286 71.7377L66.3608 73.0929ZM69.5521 72.6994L68.1532 71.6503L69.246 70.0765L70.6887 71.2131L69.5521 72.6994ZM72.6559 72L71.1696 71.082L72.1313 69.4208L73.6614 70.4262L72.6559 72ZM75.6723 71.0382L74.1422 70.2951L74.9291 68.5464L76.5466 69.4208L75.6723 71.0382ZM78.6013 69.8579L76.9838 69.2459L77.6395 67.4535L79.3444 68.1967L78.6013 69.8579ZM81.4428 68.3716L79.7816 67.8907L80.2624 66.0546L82.0548 66.6229L81.4428 68.3716ZM84.1094 66.6666L82.3608 66.3606L82.7106 64.4809L84.5029 64.918L84.1094 66.6666ZM86.645 64.7432L84.8963 64.5683L85.0712 62.6885L86.9073 62.9508L86.645 64.7432ZM88.9619 62.6011L87.2133 62.5574V60.6339L89.0494 60.765L88.9619 62.6011ZM89.3553 60.4153L89.2242 58.4918L91.0603 58.4481L91.1477 60.2841L89.3553 60.4153ZM91.3226 58.0109L91.0166 56.1311L92.8526 55.9563L93.1149 57.7486L91.3226 58.0109ZM93.0275 55.5191L92.5466 53.683L94.3827 53.3333L94.7761 55.1257L93.0275 55.5191ZM94.5575 52.8524L93.9018 51.0601L95.6504 50.5792L96.2187 52.3279L94.5575 52.8524ZM95.8253 50.0546L95.0384 48.3497L96.7433 47.694L97.4428 49.3989L95.8253 50.0546ZM96.8745 47.1694L95.9127 45.5082L97.5739 44.7213L98.4045 46.3388L96.8745 47.1694ZM97.6176 44.1967L96.5685 42.6229L98.1422 41.6612L99.1477 43.1912L97.6176 44.1967ZM98.1422 41.1803L96.9619 39.694L98.4483 38.6448L99.5848 40.0874L98.1422 41.1803Z" fill="#D9B049"/>
<path fill-rule="evenodd" clip-rule="evenodd" d="M56.9618 27.4536C56.9618 27.4536 56.787 26.7979 56.6995 26.4919C56.6995 26.4481 56.6995 26.4044 56.6558 26.4044H44.5028C44.5028 26.4481 44.5028 26.4919 44.4591 26.4919C44.3717 26.7979 44.1968 27.4536 44.1968 27.4536L47.0383 29.9017V56.0438L44.1968 58.2733L44.5028 59.4099H50.5793H56.6558L56.9618 58.2733L54.1203 56.0438V29.9017L56.9618 27.4536ZM51.847 57.1367H49.3552V28.5465H51.847V57.1367Z" fill="#D9B049"/>
<path d="M56.2622 24.4808C56.2185 24 55.7376 22.9071 55.0382 22.0765C54.5136 21.4644 53.5956 20.9836 53.2021 20.8087C53.2458 20.5901 53.2458 20.0218 52.6775 19.6284C52.0655 19.1475 51.1037 18.4043 50.7977 17.4426C50.7977 17.3989 50.8414 17.3551 50.8851 17.3114C51.1037 17.0491 51.1037 16.8306 51.06 16.612C51.0163 16.3934 50.5792 14.0327 50.5792 14.0327C50.5792 14.0327 50.142 16.3934 50.0983 16.612C50.0546 16.8306 50.0546 17.0491 50.2731 17.3114L50.3168 17.3551C50.0108 18.3169 49.0491 19.1038 48.4371 19.5847C47.8688 20.0218 47.9125 20.5901 47.9125 20.8087C47.4753 20.9836 46.6447 21.4644 46.1201 22.0327C45.4207 22.8633 44.9398 24 44.8961 24.4371C44.8524 24.8743 44.7649 25.3114 44.6338 25.53H56.5245C56.3934 25.3989 56.3059 24.9617 56.2622 24.4808Z" fill="#D9B049"/>
<path fill-rule="evenodd" clip-rule="evenodd" d="M47.0823 54.776L46.5577 54.5138C42.2735 52.328 42.0549 46.2952 46.1205 43.8034L63.2571 33.2241V35.9782L47.432 45.7706C44.8965 47.3444 44.9839 50.9291 47.6068 52.3717L47.0823 54.776Z" fill="#D9B049"/>
<path fill-rule="evenodd" clip-rule="evenodd" d="M72.4372 29.9017V56.0438L69.5957 58.2733L69.9017 59.4099H75.9782H82.0547L82.3607 58.2733L79.5192 56.0438V29.9017L82.3607 27.4536C82.3607 27.4536 82.1859 26.7979 82.0984 26.4919C82.0984 26.4481 82.0984 26.4044 82.0547 26.4044H69.9017C69.9017 26.4481 69.9017 26.4919 69.858 26.4919C69.7706 26.7979 69.5957 27.4536 69.5957 27.4536L72.4372 29.9017ZM74.7104 28.5465H77.2022V57.1367H74.7104V28.5465Z" fill="#D9B049"/>
<path d="M81.7048 24.4808C81.6611 24 81.1802 22.9071 80.4808 22.0765C79.9562 21.4644 79.0382 20.9836 78.6447 20.8087C78.6884 20.5901 78.6884 20.0218 78.1201 19.6284C77.5081 19.1475 76.5464 18.4043 76.2403 17.4426C76.2403 17.3989 76.2841 17.3551 76.3278 17.3114C76.5464 17.0491 76.5464 16.8306 76.5027 16.612C76.4589 16.3934 76.0218 14.0327 76.0218 14.0327C76.0218 14.0327 75.5846 16.3934 75.5409 16.612C75.4972 16.8306 75.4972 17.0491 75.7158 17.3114L75.7595 17.3551C75.4535 18.3169 74.4917 19.1038 73.836 19.5847C73.2677 20.0218 73.3114 20.5901 73.3114 20.8087C72.8742 20.9836 72.0436 21.4644 71.519 22.0327C70.8196 22.8633 70.3387 24 70.295 24.4371C70.2513 24.8743 70.1639 25.3114 70.0327 25.53H81.9671C81.7923 25.3989 81.7485 24.9617 81.7048 24.4808Z" fill="#D9B049"/>
<path fill-rule="evenodd" clip-rule="evenodd" d="M79.4752 54.776L79.9998 54.5138C84.2839 52.328 84.5025 46.2952 80.4369 43.8034L63.3003 33.2241V35.9782L79.1254 45.7706C81.661 47.3444 81.5735 50.9291 78.9506 52.3717L79.4752 54.776Z" fill="#D9B049"/>
<path d="M11.9344 103.913H9.3989V99.1039H6.12022V103.913H3.5847V99.1039H1.48634L0 96.6995H3.5847V80.6558H6.12022V96.6995H9.3989V80.6558H11.9344V103.913Z" fill="#D71920"/>
</svg>
