<svg width="276" height="60" viewBox="0 0 276 60" fill="none" xmlns="http://www.w3.org/2000/svg">
<g clip-path="url(#clip0_2512_1024)">
<path d="M88.4555 43.3357C85.3585 45.8721 82.1925 48.3267 79.0515 50.8044C78.3759 51.3391 77.2372 52.0842 76.5481 52.5993C76.5481 52.553 76.9812 50.8846 76.9812 50.8846C77.2476 49.9604 77.2862 48.9851 77.0927 48.0428C76.8992 47.1006 76.4796 46.2197 75.8708 45.4764C75.4126 44.8971 71.9178 41.0345 68.3768 37.1718C68.3735 37.1662 68.3692 37.1614 68.3643 37.1575C65.1944 33.7012 61.9893 30.2467 60.8898 29.1505C60.861 29.1202 60.8311 29.0935 60.8022 29.0649C59.4467 27.7655 57.752 27.3145 55.8437 27.8368C54.3599 28.2432 53.262 29.1968 52.3505 30.3323C51.4622 31.4339 27.9133 57.1128 27.7587 57.2644C25.2713 59.7596 22.0305 59.7863 19.6035 57.2126C16.8549 54.2998 14.1863 51.3106 11.4892 48.3499C10.91 47.7135 10.3352 46.9669 9.77197 46.3109C9.77197 46.3109 10.3272 46.4337 10.5919 46.4889C13.0492 47.013 15.0107 46.6832 16.7128 44.8615C18.2248 43.2501 35.8198 24.0953 45.8583 13.1062C49.5539 9.0581 52.2208 6.11873 52.6792 5.57331C55.2181 2.55553 58.9956 2.42541 61.7545 5.48953C61.9235 5.66778 62.0975 5.8692 62.2752 6.06704C65.8608 10.0421 71.5536 16.2844 76.5263 21.7175C82.7697 28.3804 89.0436 35.0951 89.1148 35.1789C91.4085 37.8509 91.1932 41.0915 88.4555 43.3357Z" fill="#13DCDC"/>
<path d="M35.719 3.34326L41.6644 8.87776C42.4792 9.63151 42.9621 10.6791 43.0477 11.7936C43.0926 12.9046 42.6822 13.9426 41.9309 14.76L15.9197 43.1604C15.454 43.6671 14.8934 44.0767 14.2698 44.3659C13.6462 44.6551 12.972 44.8182 12.2855 44.8459C11.5991 44.8735 10.914 44.7652 10.2693 44.5272C9.62463 44.2891 9.03307 43.9259 8.52835 43.4583L3.84414 39.5736C2.82463 38.6304 2.22034 37.3195 2.1642 35.9294C2.10806 34.5392 2.60468 33.1836 3.54479 32.1608L29.8115 3.58337C30.1835 3.17825 30.6315 2.85066 31.1299 2.61932C31.6282 2.38797 32.167 2.25742 32.7156 2.23513C33.2643 2.21283 33.8119 2.29922 34.3272 2.48936C34.8425 2.6795 35.3155 2.96966 35.719 3.34326Z" fill="#327DF2"/>
<path d="M73.8824 52.802L69.0087 58.3705C68.5945 58.7539 68.1091 59.05 67.5797 59.243C67.0509 59.436 66.4894 59.5216 65.9274 59.4949C65.3654 59.4682 64.8143 59.3297 64.3056 59.0876C63.7974 58.8449 63.3414 58.5036 62.9652 58.0832L46.3727 39.6138L54.2999 30.8232C56.1712 29.0473 58.6388 29.1769 60.2292 30.9475L65.1486 36.2219L73.4655 45.505L74.445 46.844C75.882 48.7247 75.6369 51.0243 73.8824 52.802Z" fill="#327DF2"/>
<path d="M271.723 9.6744C274.561 9.68427 275.994 11.1881 275.965 14.1286C275.94 16.9116 274.49 18.3661 271.723 18.3818C268.923 18.3996 267.234 16.7519 267.244 14.0143C267.254 11.2768 268.923 9.66061 271.723 9.6744Z" fill="#1C1917"/>
<path d="M267.679 23.5691L275.506 22.1433V50.3801H267.679V23.5691Z" fill="#1C1917"/>
<path d="M258.506 9.6744C261.343 9.68427 262.777 11.1881 262.748 14.1286C262.723 16.9116 261.273 18.3661 258.506 18.3818C255.705 18.3996 254.017 16.7519 254.027 14.0143C254.036 11.2768 255.705 9.66061 258.506 9.6744Z" fill="#1C1917"/>
<path d="M254.472 23.5691L262.298 22.1433V50.3801H254.472V23.5691Z" fill="#1C1917"/>
<path d="M216.439 14.0891C216.424 11.121 217.811 9.67825 220.681 9.67432C223.551 9.6704 224.998 11.1466 224.99 14.0536C224.99 16.8819 223.58 18.3364 220.821 18.3896C217.916 18.4343 216.455 17.0008 216.439 14.0891Z" fill="#1C1917"/>
<path d="M216.752 23.5691L224.578 22.1433V50.3801H216.752V23.5691Z" fill="#1C1917"/>
<path fill-rule="evenodd" clip-rule="evenodd" d="M149.022 42.4528C149.038 41.4357 149.05 40.4186 149.05 39.4027C149.05 39.2471 149.05 39.0817 149.041 38.9107C149.038 38.27 149.03 37.6293 149.016 36.9886C149.005 36.8272 149.005 36.6657 149.005 36.5081C148.957 34.9032 148.861 33.3021 148.687 31.7126C148.667 31.5511 148.648 31.3936 148.625 31.2398C148.626 31.2366 148.626 31.2334 148.626 31.2302C148.626 31.2281 148.626 31.226 148.626 31.224C148.626 31.2222 148.625 31.2204 148.625 31.2186C148.002 27.5802 146.313 24.4549 142.246 23.1979C140.819 22.741 139.353 22.4192 137.866 22.2369C137.411 22.2177 136.944 22.2119 136.464 22.2196C132.444 22.2792 130.553 22.9135 127.806 25.2949C127.604 25.4666 127.398 25.6492 127.187 25.8426C127.16 25.8683 127.123 25.8826 127.086 25.8826C127.048 25.8826 127.012 25.8683 126.984 25.8426C123.969 23.0884 122.125 22.3253 118.058 22.2234H117.706C117.227 22.2157 116.761 22.2215 116.307 22.2408C114.821 22.4221 113.354 22.7439 111.928 23.2018C110.569 23.5999 109.328 24.3274 108.315 25.3199C106.755 26.8652 105.933 28.9487 105.55 31.2359V31.2571C105.527 31.4108 105.508 31.5684 105.49 31.7299C105.326 33.2233 105.232 34.7244 105.18 36.2294V36.5254L105.169 37.0059C105.152 37.6466 105.144 38.2873 105.144 38.9279V39.4104C105.144 39.7337 105.145 40.0572 105.147 40.3808H105.146V50.3389L108.424 50.3247C108.721 50.331 109.018 50.3298 109.315 50.3208L112.939 50.305L112.961 47.0633C112.977 46.6787 112.983 46.2495 112.983 45.7705C112.983 44.5556 112.99 43.3407 112.996 42.1261V42.126V42.1259C113.01 39.6969 113.023 37.2684 112.983 34.8417C112.976 34.5956 112.972 34.3497 112.972 34.1036C112.895 30.5305 115.271 28.8756 117.762 28.7488H117.886H118.269H118.391H118.457C120.899 28.7372 122.943 30.1519 123.198 33.3848H123.162C123.182 33.6232 123.189 33.8625 123.183 34.1017C123.172 34.3381 123.172 34.5726 123.172 34.8109C123.127 37.2455 123.142 39.6801 123.157 42.1147L123.159 42.4528H123.157V50.305H126.535C126.97 50.3259 127.406 50.3303 127.842 50.3181C127.971 50.3186 128.1 50.3142 128.228 50.305H130.984V42.4528H130.973C130.99 41.4369 131.002 40.4212 131.002 39.4065V38.9241C130.999 38.2835 130.991 37.6428 130.977 37.0021C130.965 36.8406 130.965 36.6792 130.965 36.5215C130.955 36.4178 130.955 36.3256 130.955 36.2257V36.2256C130.966 35.8232 130.979 35.4221 130.994 35.0224C130.992 34.9274 130.99 34.8331 130.987 34.7389V34.7387V34.7385C130.983 34.5985 130.979 34.459 130.979 34.3189C130.971 34.0067 130.978 33.6943 131.002 33.3829C131.26 30.15 133.312 28.7353 135.745 28.7469C138.481 28.5835 141.313 30.198 141.232 34.0998C141.22 34.3361 141.22 34.5706 141.22 34.8088V34.809C141.176 37.2436 141.191 39.6782 141.206 42.1128V42.1132V42.1137C141.207 42.2511 141.207 42.3885 141.208 42.526L141.202 50.305H144.508C144.969 50.3292 145.43 50.3349 145.891 50.3219C146.032 50.3207 146.168 50.3151 146.299 50.305H149.029L149.023 42.4528H149.022Z" fill="#1C1917"/>
<path fill-rule="evenodd" clip-rule="evenodd" d="M212.077 9.61987L204.304 10.8643V13.3062C204.289 13.5429 204.28 13.8005 204.279 14.0809C204.269 15.812 204.272 17.5424 204.276 19.3351C204.277 20.2553 204.279 21.1919 204.279 22.1534C203.401 22.1534 202.55 22.1421 201.718 22.1308C199.953 22.1071 198.273 22.0845 196.598 22.1746C191.014 22.4764 186.648 25.5978 185.563 30.5432C184.943 33.4755 184.777 36.486 185.069 39.4692C185.59 44.8971 189.296 49.9813 193.57 50.1981C196.765 50.3601 199.709 50.3569 202.641 50.3536C203.05 50.3532 203.46 50.3528 203.87 50.3528C209.509 50.3528 212.022 46.4756 212.022 40.5376C212.022 39.2806 212.024 38.0243 212.027 36.7683L212.077 36.7544V21.2063C212.083 18.8625 212.086 16.5173 212.084 14.1693C212.084 13.9993 212.082 13.8375 212.077 13.6835V9.61987ZM202.2 43.6151C203.059 43.346 204.128 42.0466 204.172 41.1741C204.326 38.23 204.304 35.2755 204.282 32.1963C204.274 31.0761 204.266 29.9394 204.266 28.7807C203.684 28.7342 203.125 28.6696 202.582 28.6068C201.419 28.4724 200.329 28.3465 199.254 28.4251C196.666 28.6115 194.005 29.0671 193.177 32.1174C192.744 33.7184 192.447 35.4521 192.571 37.0916C192.987 42.6175 196.896 45.2738 202.2 43.6151Z" fill="#1C1917"/>
<path fill-rule="evenodd" clip-rule="evenodd" d="M180.553 36.2715C180.527 34.3735 180.316 32.4799 179.922 30.618C178.839 25.6884 174.48 22.5769 168.904 22.2761C168.268 22.242 167.633 22.2241 166.992 22.2163C166.351 22.2241 165.715 22.242 165.08 22.2761C159.504 22.5769 155.144 25.6884 154.061 30.618C153.667 32.48 153.456 34.3735 153.431 36.2715V37.0754C153.443 37.8894 153.488 38.7034 153.568 39.5155C154.088 44.926 157.789 49.994 162.056 50.2101C163.761 50.2964 165.394 50.3357 166.992 50.3531C168.59 50.3357 170.223 50.2964 171.927 50.2101C176.195 49.994 179.895 44.926 180.416 39.5155C180.496 38.7035 180.541 37.8894 180.552 37.0754L180.553 36.2715ZM173.519 36.1844C173.506 35.1696 173.405 34.1573 173.215 33.1618C172.692 30.5193 170.586 28.8514 167.891 28.6902C167.585 28.6718 167.278 28.6622 166.968 28.6581C166.658 28.6622 166.351 28.6718 166.044 28.6902C163.35 28.8514 161.243 30.5193 160.721 33.1618C160.53 34.1573 160.429 35.1696 160.416 36.1844V36.6313C160.422 37.065 160.444 37.4987 160.482 37.9314C160.734 40.8317 162.521 43.5484 164.583 43.6642C165.407 43.7105 166.196 43.7315 166.968 43.7408C167.74 43.7315 168.529 43.7105 169.352 43.6642C171.414 43.5484 173.202 40.8317 173.453 37.9314C173.492 37.4987 173.513 37.065 173.519 36.6313V36.1844Z" fill="#1C1917"/>
<path fill-rule="evenodd" clip-rule="evenodd" d="M241.158 20.2736V23.6883H248.928V30.777H240.938V50.3528H233.601V47.6993C233.589 47.514 233.584 47.3166 233.583 47.1062C233.566 43.2063 233.565 35.4806 233.567 30.777H228.763V23.6883H233.53C233.545 23.3349 233.559 22.9664 233.573 22.5905V22.5899C233.66 20.3305 233.757 17.8038 233.98 16.6974C234.82 12.5323 237.115 10.3249 241.308 9.7928C242.451 9.66504 243.6 9.60805 244.749 9.6219H250.431V16.6795L243.971 16.4203V16.4167C241.627 16.6664 241.172 17.6953 241.158 20.2736Z" fill="#1C1917"/>
</g>
<defs>
<clipPath id="clip0_2512_1024">
<rect width="276" height="59" fill="white" transform="translate(0 0.5)"/>
</clipPath>
</defs>
</svg>
