<svg width="5078" height="1082" viewBox="0 0 5078 1082" fill="none" xmlns="http://www.w3.org/2000/svg">
<path d="M1627.46 785.562C1570.48 832.079 1512.23 877.092 1454.43 922.53C1442.01 932.337 1421.06 946.001 1408.37 955.448C1408.37 954.598 1416.35 924.001 1416.35 924.001C1421.25 907.053 1421.95 889.166 1418.39 871.886C1414.83 854.606 1407.12 838.453 1395.92 824.822C1387.48 814.198 1323.18 743.36 1258.03 672.522C1257.98 672.421 1257.9 672.332 1257.81 672.261C1199.49 608.876 1140.52 545.524 1120.28 525.42C1119.76 524.865 1119.2 524.374 1118.68 523.851C1093.74 500.021 1062.55 491.75 1027.44 501.328C1000.15 508.781 979.946 526.27 963.176 547.093C946.832 567.295 513.567 1038.22 510.723 1041C464.958 1086.76 405.333 1087.25 360.679 1040.05C310.109 986.634 261.01 931.814 211.387 877.517C200.73 865.847 190.155 852.154 179.793 840.124C179.793 840.124 190.008 842.376 194.879 843.389C240.088 853 276.177 846.952 307.494 813.544C335.312 783.993 659.035 432.713 843.729 231.184C911.723 156.946 960.79 103.042 969.224 93.0387C1015.94 37.6957 1085.43 35.3094 1136.2 91.5023C1139.31 94.7713 1142.51 98.4652 1145.78 102.094C1211.75 174.991 1316.48 289.469 1407.98 389.106C1522.85 511.298 1638.28 634.439 1639.58 635.975C1681.79 684.977 1677.83 744.406 1627.46 785.562Z" fill="#13DCDC"/>
<path d="M657.175 52.1429L766.562 153.64C781.553 167.463 790.438 186.675 792.013 207.113C792.839 227.487 785.289 246.524 771.466 261.514L292.897 782.349C284.329 791.641 274.014 799.153 262.541 804.457C251.068 809.761 238.663 812.752 226.034 813.259C213.405 813.766 200.799 811.78 188.938 807.414C177.077 803.048 166.193 796.387 156.907 787.812L70.7242 716.57C51.9667 699.273 40.8487 675.233 39.8158 649.739C38.7829 624.245 47.9199 599.385 65.2167 580.627L548.486 56.5463C555.331 49.1168 563.573 43.109 572.742 38.8665C581.91 34.6239 591.824 32.2297 601.918 31.8208C612.012 31.4119 622.088 32.9962 631.569 36.4832C641.05 39.9701 649.751 45.2914 657.175 52.1429Z" fill="#327DF2"/>
<path d="M1359.33 959.168L1269.66 1061.29C1262.04 1068.32 1253.11 1073.75 1243.37 1077.29C1233.64 1080.83 1223.31 1082.4 1212.97 1081.91C1202.63 1081.42 1192.49 1078.88 1183.13 1074.44C1173.78 1069.99 1165.39 1063.73 1158.47 1056.02L853.191 717.311L999.041 556.099C1033.47 523.531 1078.87 525.909 1108.13 558.379L1198.64 655.106L1351.66 825.349L1369.68 849.905C1396.12 884.394 1391.61 926.568 1359.33 959.168Z" fill="#327DF2"/>
<path d="M4999.33 168.252C5051.53 168.432 5077.89 196.01 5077.37 249.937C5076.91 300.973 5050.22 327.647 4999.33 327.937C4947.79 328.262 4916.74 298.045 4916.91 247.841C4917.09 197.637 4947.79 167.999 4999.33 168.252Z" fill="white"/>
<path d="M4924.91 423.065L5068.91 396.917V914.75H4924.91V423.065Z" fill="white"/>
<path d="M4756.14 168.252C4808.34 168.432 4834.71 196.01 4834.18 249.937C4833.72 300.973 4807.04 327.647 4756.14 327.937C4704.61 328.262 4673.55 298.045 4673.73 247.841C4673.91 197.637 4704.61 167.999 4756.14 168.252Z" fill="white"/>
<path d="M4681.91 423.065L4825.91 396.917V914.75H4681.91V423.065Z" fill="white"/>
<path d="M3982.18 249.213C3981.9 194.78 4007.42 168.322 4060.22 168.25C4113.02 168.178 4139.63 195.25 4139.49 248.563C4139.49 300.429 4113.55 327.104 4062.79 328.08C4009.33 328.899 3982.46 302.61 3982.18 249.213Z" fill="white"/>
<path d="M3987.91 423.065L4131.91 396.917V914.75H3987.91V423.065Z" fill="white"/>
<path fill-rule="evenodd" clip-rule="evenodd" d="M2741.79 769.368C2742.1 750.714 2742.32 732.061 2742.32 713.431C2742.32 710.576 2742.32 707.545 2742.14 704.408C2742.1 692.658 2741.94 680.909 2741.68 669.159C2741.47 666.198 2741.47 663.238 2741.47 660.347C2740.59 630.915 2738.83 601.553 2735.62 572.402C2735.27 569.441 2734.92 566.551 2734.49 563.731C2734.5 563.673 2734.51 563.614 2734.51 563.556C2734.51 563.517 2734.51 563.479 2734.5 563.441C2734.5 563.408 2734.5 563.376 2734.49 563.344C2723.04 496.618 2691.95 439.304 2617.12 416.252C2590.87 407.872 2563.89 401.971 2536.54 398.628C2528.17 398.275 2519.57 398.169 2510.74 398.31C2436.79 399.403 2402 411.035 2351.45 454.708C2347.74 457.857 2343.94 461.205 2340.06 464.754C2339.56 465.224 2338.89 465.486 2338.2 465.486C2337.5 465.486 2336.84 465.224 2336.33 464.754C2280.85 414.243 2246.94 400.249 2172.11 398.381H2165.62C2156.81 398.24 2148.23 398.346 2139.89 398.698C2112.53 402.025 2085.56 407.926 2059.31 416.322C2034.3 423.625 2011.47 436.964 1992.83 455.166C1964.14 483.506 1949.02 521.715 1941.97 563.661V564.048C1941.55 566.868 1941.19 569.759 1940.88 572.72C1937.84 600.108 1936.12 627.637 1935.17 655.236V660.664L1934.95 669.477C1934.65 681.226 1934.5 692.975 1934.5 704.725V713.572C1934.5 719.502 1934.52 725.434 1934.56 731.367H1934.54L1934.54 913.991L1994.85 913.728C2000.31 913.846 2005.77 913.822 2011.23 913.657L2077.91 913.367L2078.31 853.918C2078.62 846.865 2078.73 838.993 2078.73 830.209C2078.73 807.93 2078.85 785.651 2078.98 763.374V763.374V763.373V763.372C2079.22 718.826 2079.46 674.291 2078.73 629.787C2078.59 625.275 2078.52 620.763 2078.52 616.251C2077.11 550.725 2120.82 520.376 2166.64 518.049H2168.93H2175.98H2178.24H2179.44C2224.38 517.838 2261.99 543.781 2266.68 603.069H2266.01C2266.37 607.441 2266.5 611.83 2266.39 616.216C2266.18 620.552 2266.18 624.852 2266.18 629.223C2265.36 673.871 2265.64 718.519 2265.91 763.167L2265.95 769.367H2265.91V913.367H2328.07C2336.08 913.751 2344.1 913.832 2352.12 913.607C2354.49 913.618 2356.86 913.538 2359.22 913.367H2409.91V769.367H2409.72C2410.02 750.737 2410.24 732.108 2410.24 713.502V704.655C2410.2 692.905 2410.04 681.156 2409.79 669.406C2409.57 666.445 2409.57 663.484 2409.57 660.594C2409.4 658.691 2409.4 657 2409.4 655.168V655.166C2409.59 647.787 2409.82 640.432 2410.1 633.1C2410.07 631.358 2410.02 629.628 2409.97 627.902L2409.97 627.898L2409.97 627.894C2409.9 625.327 2409.82 622.769 2409.82 620.199C2409.67 614.474 2409.81 608.744 2410.24 603.033C2415 543.745 2452.75 517.803 2497.52 518.014C2547.85 515.018 2599.95 544.627 2598.47 616.181C2598.26 620.515 2598.26 624.814 2598.26 629.184V629.188C2597.44 673.836 2597.71 718.484 2597.98 763.132V763.139V763.147C2598 765.667 2598.02 768.188 2598.03 770.708L2597.91 913.368H2658.75C2667.22 913.811 2675.71 913.915 2684.19 913.678C2686.78 913.656 2689.28 913.553 2691.68 913.368H2741.91L2741.81 769.368H2741.79Z" fill="white"/>
<path fill-rule="evenodd" clip-rule="evenodd" d="M3901.91 167.25L3758.91 190.073V234.853C3758.62 239.194 3758.48 243.919 3758.45 249.06C3758.26 280.808 3758.32 312.541 3758.38 345.418C3758.41 362.293 3758.45 379.469 3758.45 397.104C3742.3 397.104 3726.64 396.894 3711.33 396.688C3678.86 396.253 3647.94 395.839 3617.14 397.491C3514.39 403.025 3434.06 460.269 3414.11 550.963C3402.7 604.738 3399.63 659.949 3405.01 714.657C3414.6 814.198 3482.79 907.438 3561.41 911.413C3620.2 914.385 3674.37 914.326 3728.31 914.267C3735.84 914.258 3743.38 914.25 3750.91 914.25C3854.68 914.25 3900.91 843.146 3900.91 734.25C3900.92 711.199 3900.95 688.158 3900.99 665.124L3901.91 664.87V379.734C3902.02 336.751 3902.09 293.741 3902.05 250.682C3902.05 247.565 3902.01 244.597 3901.91 241.772V167.25ZM3720.2 790.687C3735.99 785.753 3755.66 761.925 3756.47 745.922C3759.32 691.93 3758.92 637.748 3758.5 581.279C3758.35 560.736 3758.2 539.89 3758.2 518.64C3747.51 517.787 3737.22 516.603 3727.22 515.452C3705.82 512.987 3685.77 510.677 3665.99 512.119C3618.37 515.538 3569.41 523.892 3554.18 579.831C3546.22 609.193 3540.75 640.987 3543.04 671.054C3550.69 772.393 3622.6 821.107 3720.2 790.687Z" fill="white"/>
<path fill-rule="evenodd" clip-rule="evenodd" d="M3321.91 656.008C3321.44 621.201 3317.57 586.475 3310.31 552.329C3290.39 461.924 3210.18 404.864 3107.59 399.347C3095.91 398.721 3084.21 398.393 3072.41 398.25C3060.62 398.393 3048.92 398.721 3037.24 399.347C2934.65 404.864 2854.44 461.924 2834.52 552.329C2827.26 586.475 2823.38 621.201 2822.91 656.009L2822.92 670.751C2823.13 685.678 2823.97 700.608 2825.44 715.5C2835.01 814.724 2903.09 907.666 2981.6 911.628C3012.97 913.211 3043.01 913.932 3072.41 914.25C3101.81 913.932 3131.86 913.211 3163.23 911.628C3241.73 907.666 3309.82 814.724 3319.39 715.5C3320.86 700.608 3321.7 685.678 3321.91 670.751L3321.91 656.008ZM3192.51 654.41C3192.28 635.801 3190.4 617.236 3186.91 598.98C3177.28 550.519 3138.53 519.931 3088.97 516.974C3083.32 516.639 3077.67 516.462 3071.97 516.386C3066.27 516.462 3060.62 516.639 3054.98 516.974C3005.41 519.931 2966.66 550.519 2957.03 598.98C2953.54 617.236 2951.67 635.801 2951.43 654.411L2951.43 662.607C2951.54 670.56 2951.94 678.514 2952.65 686.448C2957.27 739.637 2990.17 789.459 3028.1 791.583C3043.25 792.431 3057.77 792.818 3071.97 792.988C3086.18 792.818 3100.69 792.431 3115.85 791.583C3153.78 789.459 3186.67 739.637 3191.3 686.448C3192 678.514 3192.4 670.56 3192.51 662.607L3192.51 654.41Z" fill="white"/>
<path fill-rule="evenodd" clip-rule="evenodd" d="M4436.96 362.629V425.25H4579.91V555.25H4432.91V914.25H4297.91V865.587C4297.71 862.191 4297.61 858.57 4297.6 854.71C4297.27 783.192 4297.26 641.509 4297.29 555.25H4208.91V425.25H4296.62C4296.89 418.77 4297.15 412.012 4297.41 405.118L4297.41 405.108V405.107C4299.01 363.672 4300.79 317.335 4304.89 297.045C4320.35 220.661 4362.58 180.179 4439.71 170.421C4460.75 168.078 4481.9 167.034 4503.03 167.287L4607.58 167.287V296.716L4488.71 291.962L4488.71 291.896C4445.59 296.476 4437.21 315.344 4436.96 362.629Z" fill="white"/>
</svg>
