<svg width="1069" height="259" viewBox="0 0 1069 259" fill="none" xmlns="http://www.w3.org/2000/svg">
<g clip-path="url(#clip0_3875_597)">
<path d="M258.104 128.786C257.51 164.391 245.283 194.875 221.778 219.406C201.716 240.364 176.667 253.165 147.405 257.512C140.743 258.502 134.018 258.999 127.283 259C95.053 259 65.7312 246.913 39.9114 222.919C20.0272 204.461 7.50306 182.193 2.75458 156.769C-5.73331 111.4 5.4256 72.0437 35.9939 39.7729C57.8962 16.6713 85.5561 3.45334 118.202 0.535865C152.747 -2.56023 184.68 7.79977 213.053 31.3182C222.381 39.0616 230.455 48.2108 236.985 58.4387C237.169 58.7305 237.341 59.0341 237.495 59.3259L243.075 70.2872L242.962 70.3944L225.446 87.0657L223.321 82.7609C217.234 70.1523 208.629 58.9323 198.041 49.7966C187.453 40.6608 175.107 33.8039 161.769 29.651C133.753 20.7795 103.422 23.6375 78.5521 37.5103C29.8209 64.6012 10.3521 124.856 34.2132 174.691C58.3117 225.062 117.252 247.926 168.358 226.729C211.865 208.689 234.421 165.105 233.056 130.274L227.179 135.871C216.97 145.576 206.82 155.221 196.67 164.926V138.967C196.659 136.442 197.17 133.943 198.171 131.626C199.172 129.31 200.642 127.228 202.487 125.511C204.327 123.784 206.167 121.998 208.007 120.271C214.715 113.9 221.422 107.411 227.951 101.159C232.106 97.1697 236.261 93.1209 240.475 89.1317C241.429 88.215 242.44 87.3599 243.502 86.5715C243.977 86.1547 244.511 85.7975 245.045 85.3212L248.785 82.1655L250.625 86.7501C250.749 86.977 250.848 87.2165 250.922 87.4646C251.145 87.9703 251.343 88.487 251.515 89.0126C256.145 102.826 258.341 115.806 258.104 128.786Z" fill="black"/>
<path d="M188.895 62.5172C187.53 65.5538 186.342 68.4713 184.977 71.2697C172.394 96.0384 159.87 120.807 147.049 145.457C143.925 151.375 142.352 157.993 142.478 164.688C142.656 176.834 142.538 188.921 142.597 201.067C142.597 205.116 141.291 206.426 137.314 206.426C131.557 206.426 125.74 206.366 119.982 206.426C115.709 206.426 114.344 205.235 114.344 200.889C114.403 189.159 114.344 177.37 114.581 165.641C114.759 157.008 111.91 149.386 108.111 141.825C95.9433 117.473 83.8347 93.0614 71.7855 68.5903C70.8952 66.7446 70.1235 64.8393 69.1738 62.6363C79.1456 62.6363 88.5832 62.5768 98.0802 62.6959C100.514 62.6959 101.642 64.6607 102.472 66.566C106.509 75.3779 110.604 84.2494 114.522 93.1209C119.389 104.195 124.078 115.329 128.886 126.463C129.064 126.821 129.301 127.237 129.658 127.892C130.31 126.463 130.904 125.332 131.438 124.141C140.144 104.969 148.889 85.7975 157.674 66.6255C158.979 63.7676 160.938 62.2791 164.025 62.2791L187.589 62.4577C188.024 62.3928 188.467 62.413 188.895 62.5172Z" fill="black"/>
<path d="M970.184 140.11C968.303 117.997 955.85 104.207 934.173 100.218C931.009 99.6227 927.774 99.3607 924.919 99.1107C923.673 99.0035 922.492 98.9023 921.394 98.7772H921.263H921.133C919.744 98.8725 918.444 98.9499 917.209 99.0273C914.58 99.1881 912.306 99.325 909.991 99.5691C890.095 101.665 876.604 112.668 872.004 130.53C868.921 142.336 868.884 154.734 871.897 166.558C875.856 182.318 885.881 192.357 901.693 196.382C907.723 197.918 913.92 198.692 920.141 198.686C925.524 198.677 930.893 198.129 936.167 197.048C954.508 193.345 965.661 182.02 969.318 163.384C970.219 158.698 970.658 153.933 970.629 149.16C970.588 146.302 970.469 143.301 970.184 140.11ZM953.339 148.851C953.339 152.856 952.899 156.85 952.027 160.759C948.953 174.59 940.079 181.496 924.13 182.491C919.377 182.769 914.608 182.469 909.926 181.598C898.144 179.442 890.671 172.119 888.321 160.431C886.887 153.421 886.777 146.203 887.994 139.151C890.546 124.451 899.04 116.657 913.968 115.335C915.363 115.21 916.805 115.157 918.206 115.103L920.153 115.026L920.812 115.056C924.065 115.125 927.309 115.434 930.517 115.978C942.263 118.241 949.249 124.856 951.885 136.222C952.849 140.362 953.337 144.599 953.339 148.851Z" fill="black"/>
<path d="M620.163 109.703C621.273 105.452 618.186 105.458 615.064 105.368C604.6 105.083 594.035 106.66 583.671 104.523C572.511 102.206 561.034 101.859 549.755 103.499C529.574 106.422 518.065 117.366 514.866 136.299C510.812 160.258 521.769 178.454 544.033 184.182C556.498 187.391 569.159 187.361 581.736 184.587C588.734 183.045 592.705 185.259 594.426 192.202C596.878 202.074 592.189 211.076 581.962 214.488C569.77 218.548 557.394 218.06 545.333 213.642C539.724 211.6 535.243 207.569 534.239 201.597C533.296 195.947 529.806 196.649 526.167 196.834C522.529 197.019 518.676 195.977 515.174 197.465C513.987 197.971 514.658 199.847 514.854 201.079C516.522 211.916 521.508 220.93 531.539 225.58C552.83 235.446 574.762 236.077 596.302 226.622C609.283 220.918 614.845 208.903 613.23 194.798C612.162 185.468 607.348 178.722 599.578 173.792C615.225 158.984 617.735 142.831 607.888 120.343C610.933 119.944 613.296 119.384 615.664 119.36C623.831 119.259 619.273 113.126 620.163 109.703ZM580.567 168.052C575.159 170.118 569.538 170.702 563.805 170.672C561.187 170.523 558.54 170.565 555.952 170.196C536.608 167.427 527.247 150.232 535.177 132.138C537.819 126.082 542.46 122.302 548.604 120.509C558.73 117.464 569.529 117.502 579.635 120.617C589.856 123.772 594.812 131.62 595.02 143.986C595.228 156.353 590.461 164.26 580.567 168.028V168.052Z" fill="black"/>
<path d="M1058.17 190.13C1055.43 192.18 1052.41 193.827 1049.21 195.018C1045.62 196.341 1041.9 197.248 1038.11 197.721C1034.02 198.281 1029.91 198.569 1025.79 198.585C1018.63 198.651 1011.51 197.553 1004.7 195.334C991.885 191.065 983.991 182.8 981.243 170.779C980.798 168.814 980.554 166.808 981.801 165.456C982.721 164.456 984.211 164.123 986.347 164.432C987.189 164.54 988.041 164.54 988.882 164.432C993.684 163.837 998.379 164.289 999.976 171.416C1001.03 176.072 1005.73 178.662 1008.43 179.788C1019.71 184.497 1031.17 184.73 1042.47 180.472C1048.34 178.263 1051.38 174.119 1051.46 168.154C1051.57 161.175 1049.68 158.716 1043.11 157.186C1037.23 155.811 1031.09 155.257 1025.15 154.721C1021.09 154.358 1016.9 153.983 1012.79 153.346C1007.8 152.572 1002.49 151.56 997.358 149.476C989.517 146.272 984.145 139.866 982.614 131.911C981.083 123.957 983.712 115.836 989.867 109.882C997.055 102.909 1006.06 100.808 1013.1 99.7597C1015.81 99.3548 1018.53 99.2 1020.72 99.0749C1021.55 99.0273 1022.31 98.9797 1022.95 98.9321H1023.11C1033.2 99.1881 1041.51 100.123 1049.35 103.695C1058.19 107.744 1063.9 114.27 1066.31 123.076C1066.85 125.052 1067.23 127.243 1065.93 128.714C1064.96 129.774 1063.39 130.107 1061.11 129.714C1060.43 129.631 1059.75 129.631 1059.07 129.714C1054.71 130.149 1049.86 130.048 1047.48 123.326C1046.29 120.045 1043.22 117.824 1037.44 116.115C1028.62 113.507 1019.24 113.526 1010.43 116.169C1007.82 116.885 1005.41 118.193 1003.38 119.991C1000.27 122.808 999.168 126.255 999.993 130.53C1000.63 133.805 1002.72 135.698 1007 136.859C1012.75 138.425 1018.81 138.949 1024.67 139.461C1027.83 139.735 1031.09 140.015 1034.3 140.455C1039.82 141.223 1044.78 141.968 1049.79 143.349C1057.5 145.487 1066.59 149.452 1068.42 161.211C1070.44 173.983 1067.07 183.432 1058.17 190.13Z" fill="black"/>
<path d="M859.071 120.396C856.898 110.769 850.868 104.69 841.157 102.332C837.721 101.518 834.2 101.118 830.669 101.141C825.671 101.141 820.673 101.141 815.676 101.141C803.502 101.141 790.906 101.141 778.531 101.016C777.106 101.016 775.337 101.129 774.174 102.29C773.011 103.451 772.904 105.267 772.928 106.982C773.052 117.104 773.028 127.44 773.011 137.425C773.011 141.116 773.011 144.81 773.011 148.505V184.67C773.011 190.344 773.011 193.196 774.75 194.935C776.263 196.441 778.572 196.62 782.822 196.62H784.799H785.214C786.544 196.62 788.182 196.465 789.292 195.352C790.402 194.238 790.479 192.642 790.479 191.184C790.396 187.206 790.414 183.158 790.432 179.24C790.432 174.506 790.467 169.606 790.319 164.784C790.271 163.259 790.503 162.694 790.699 162.491C791.138 162.045 792.675 162.069 793.186 162.074C807.574 162.271 820.49 162.271 832.705 162.074C848.066 161.836 857.082 154.686 859.504 140.825C860.05 137.733 860.326 134.599 860.329 131.459C860.316 127.736 859.894 124.026 859.071 120.396ZM791.15 146.409C790.925 146.423 790.7 146.395 790.485 146.326C790.449 146.278 790.355 146.058 790.36 145.135V139.997C790.39 132.852 790.414 125.499 790.295 118.241C790.295 117.324 790.455 117.104 790.461 117.104C790.467 117.104 790.77 116.931 792.022 116.955C796.67 117.02 801.395 117.008 805.965 116.997H810.049V117.08H811.533C813.438 117.08 815.349 117.08 817.255 117.032C821.41 116.985 825.748 116.931 829.969 117.139C838.747 117.568 842.617 121.754 842.902 131.131C842.902 131.477 842.902 131.822 842.902 132.156C842.902 141.087 839.014 145.606 831.031 146.005C822.169 146.463 813.112 146.427 804.321 146.392C801.947 146.392 799.531 146.392 797.103 146.392C795.115 146.392 793.115 146.392 791.126 146.392L791.15 146.409Z" fill="black"/>
<path d="M498.816 133.543C495.213 118.175 485.573 108.732 470.55 104.779C460.941 102.248 451.147 102.028 441.264 103.058C417.676 105.523 404.398 117.753 401.976 141.301C399.009 170.017 408.215 191.767 438.676 196.262C442.772 196.858 446.933 196.947 450.322 197.215C454.144 197.025 457.201 196.959 460.252 196.703C481.994 194.887 495.539 183.545 499.427 163.521C501.353 153.599 501.144 143.378 498.816 133.543ZM480.748 161.211C477.424 174.417 467.98 180.318 451.07 180.264C439.946 180.115 429.108 178.514 423.766 167.201C418.014 155.096 418.258 142.533 424.698 130.584C427.778 124.862 433.328 122.034 439.46 120.545C446.918 118.704 454.703 118.647 462.187 120.378C471.737 122.581 478.16 128.119 480.647 137.812C482.653 145.477 482.688 153.528 480.748 161.211Z" fill="black"/>
<path d="M718.646 114.091C714.081 109.173 707.962 106.494 701.545 104.856C689.856 101.847 677.635 101.561 665.819 104.023C646.505 108 635.975 118.908 632.989 138.312C632.183 143.948 631.984 149.655 632.396 155.335C633.921 179.675 646.238 192.976 670.217 196.447C674.099 197.013 678.058 196.977 681.495 197.191C685.021 197.013 688.089 197.001 691.128 196.667C708.383 194.774 722.908 188.076 728.066 170.172C733.799 150.339 733.983 130.637 718.646 114.091ZM706.335 171.345C700.4 179.252 691.176 180.175 680.219 180.276C671.167 180.169 660.412 178.889 654.832 168.088C648.54 155.924 648.422 142.867 655.218 130.935C661.599 119.729 673.333 118.824 684.688 119.325C695.598 119.801 705.896 122.79 710.009 134.466C714.503 147.118 714.859 160.014 706.335 171.345Z" fill="black"/>
<path d="M288.791 69.9598C295.207 69.9598 301.493 70.0193 307.785 69.9598C310.907 69.9181 311.637 72.4962 312.907 74.3955C325.071 92.6108 337.2 110.836 349.292 129.071C351.756 128.571 352.207 126.386 353.24 124.844C364.185 108.447 375.201 92.0968 385.844 75.4911C388.55 71.2577 391.411 69.406 396.409 69.8824C401.158 70.3349 405.989 69.9776 412.05 69.9776C409.901 73.2642 408.304 75.7352 406.707 78.1882C391.94 100.468 377.152 122.736 362.345 144.992C360.342 147.842 359.315 151.266 359.419 154.751C359.603 166.379 359.353 178.013 359.561 189.642C359.62 193.214 358.825 194.488 354.949 194.548C340.039 194.78 338.881 194.822 340.318 180.181C342.449 158.454 336.667 140.289 323.176 123.177C311.554 108.435 302.17 91.9182 291.86 76.14C290.679 74.3776 288.939 72.8772 288.791 69.9598Z" fill="black"/>
</g>
<defs>
<clipPath id="clip0_3875_597">
<rect width="1069" height="259" fill="white"/>
</clipPath>
</defs>
</svg>
